<svg xmlns="http://www.w3.org/2000/svg" width="114.347" height="27.499" viewBox="0 0 114.347 27.499">
    <g data-name="Group 31">
        <g data-name="Group 5">
            <g data-name="Group 1">
                <path d="M.001 0h3.22v10.456l5.07-5.016h4.172l-5.175 5.2 5.677 8.158H9.03l-3.986-5.993-1.823 1.8v4.2H.001z" data-name="Path 1" transform="translate(-198.499 -86.173) translate(198.499 86.173)"/>
            </g>
            <g data-name="Group 2">
                <path d="M16.713 12.883a3.357 3.357 0 0 0 .315 1.349 3.082 3.082 0 0 0 .778 1.027 3.774 3.774 0 0 0 1.1.661 3.429 3.429 0 0 0 1.268.237 4.725 4.725 0 0 0 2.76-.793 3.286 3.286 0 0 0 .712-.631c.165-.213.294-.37.382-.478l2.718 1.586a7.369 7.369 0 0 1-.934 1.162 6.842 6.842 0 0 1-1.361 1.054 7.3 7.3 0 0 1-1.847.766 9.258 9.258 0 0 1-2.43.291 7.511 7.511 0 0 1-2.9-.529 6.045 6.045 0 0 1-2.139-1.466 6.449 6.449 0 0 1-1.334-2.217 8.621 8.621 0 0 1 0-5.572 6.449 6.449 0 0 1 1.334-2.217 6.045 6.045 0 0 1 2.139-1.466 7.511 7.511 0 0 1 2.9-.529 7.039 7.039 0 0 1 2.878.541 5.255 5.255 0 0 1 2.006 1.547 6.453 6.453 0 0 1 1.163 2.442 13.006 13.006 0 0 1 .369 3.232zm6.494-2.481a2.142 2.142 0 0 0-.171-.712 2.968 2.968 0 0 0-.544-.871 3.45 3.45 0 0 0-.937-.739 2.785 2.785 0 0 0-1.385-.318 3.366 3.366 0 0 0-2.31.781 3.526 3.526 0 0 0-1.147 1.859z" data-name="Path 2" transform="translate(-198.499 -86.173) translate(198.499 86.173)"/>
            </g>
            <g data-name="Group 3">
                <path d="M29.358 7.762h-1.955V5.44h1.955V3.327a3.844 3.844 0 0 1 .315-1.676 2.572 2.572 0 0 1 .859-1.015 3.223 3.223 0 0 1 1.253-.5 8.35 8.35 0 0 1 1.5-.132c.721 0 1.445.027 2.166.078v2.8a7.326 7.326 0 0 0-1.054-.078 1.964 1.964 0 0 0-1.4.409 1.711 1.711 0 0 0-.423 1.28v.952h3.418v2.322h-3.411v11.036h-3.22z" data-name="Path 3" transform="translate(-198.499 -86.173) translate(198.499 86.173)"/>
            </g>
            <g data-name="Group 4">
                <path d="M37.673 7.762h-1.952V5.44h1.952V3.327a3.8 3.8 0 0 1 .318-1.676 2.566 2.566 0 0 1 .856-1.015 3.237 3.237 0 0 1 1.256-.5 8.325 8.325 0 0 1 1.5-.132q1.081 0 2.166.078v2.8a7.4 7.4 0 0 0-1.057-.078 1.969 1.969 0 0 0-1.4.409 1.711 1.711 0 0 0-.421 1.28v.952h2.878v2.322h-2.878v11.036h-3.223z" data-name="Path 4" transform="translate(-198.499 -86.173) translate(198.499 86.173)"/>
            </g>
        </g>
        <g data-name="Group 10">
            <g data-name="Group 6">
                <path d="M0 0h3.223v10.456L8.29 5.44h4.172l-5.176 5.2 5.677 8.158H9.028l-3.986-5.993-1.82 1.8v4.2H-.001z" data-name="Path 5" transform="translate(-198.499 -86.173) translate(269.072 86.173)"/>
            </g>
            <g data-name="Group 7">
                <path d="M16.713 12.883a3.359 3.359 0 0 0 .318 1.349 3.043 3.043 0 0 0 .778 1.027 3.733 3.733 0 0 0 1.1.661 3.418 3.418 0 0 0 1.268.237 4.705 4.705 0 0 0 2.758-.793 3.288 3.288 0 0 0 .712-.631c.168-.213.294-.37.384-.478l2.718 1.586a7.227 7.227 0 0 1-.937 1.162 6.752 6.752 0 0 1-1.361 1.054 7.3 7.3 0 0 1-1.847.766 9.235 9.235 0 0 1-2.427.291 7.5 7.5 0 0 1-2.9-.529 6.018 6.018 0 0 1-2.139-1.466 6.357 6.357 0 0 1-1.334-2.217 8.62 8.62 0 0 1 0-5.572 6.357 6.357 0 0 1 1.334-2.217 6.018 6.018 0 0 1 2.139-1.466 7.5 7.5 0 0 1 2.9-.529 7.038 7.038 0 0 1 2.878.541 5.256 5.256 0 0 1 2.007 1.547 6.494 6.494 0 0 1 1.159 2.442 13 13 0 0 1 .369 3.232zm6.494-2.481a2.142 2.142 0 0 0-.171-.712 2.9 2.9 0 0 0-.541-.871 3.449 3.449 0 0 0-.937-.739 2.784 2.784 0 0 0-1.385-.318 3.374 3.374 0 0 0-2.313.781 3.564 3.564 0 0 0-1.147 1.859z" data-name="Path 6" transform="translate(-198.499 -86.173) translate(269.072 86.173)"/>
            </g>
            <g data-name="Group 8">
                <path d="M29.358 7.762h-1.952V5.44h1.952V3.327a3.8 3.8 0 0 1 .318-1.676 2.567 2.567 0 0 1 .856-1.015 3.238 3.238 0 0 1 1.256-.5 8.325 8.325 0 0 1 1.5-.132q1.081 0 2.163.078v2.8a7.327 7.327 0 0 0-1.054-.078 1.968 1.968 0 0 0-1.4.409 1.711 1.711 0 0 0-.424 1.28v.952h3.421v2.322h-3.416v11.036h-3.22z" data-name="Path 7" transform="translate(-198.499 -86.173) translate(269.072 86.173)"/>
            </g>
            <g data-name="Group 9">
                <path d="M37.676 7.762h-1.955V5.44h1.955V3.327a3.844 3.844 0 0 1 .315-1.676A2.6 2.6 0 0 1 38.85.636a3.223 3.223 0 0 1 1.253-.5 8.373 8.373 0 0 1 1.5-.132q1.086 0 2.166.078v2.8a7.326 7.326 0 0 0-1.054-.078 1.964 1.964 0 0 0-1.4.409 1.711 1.711 0 0 0-.424 1.28v.952h2.878v2.322h-2.878v11.036h-3.22z" data-name="Path 8" transform="translate(-198.499 -86.173) translate(269.072 86.173)"/>
            </g>
        </g>
        <g data-name="Group 11">
            <path d="M260.958 89.601a2.834 2.834 0 0 0-.973-1.223 3.247 3.247 0 0 0-1.406-.568 6.484 6.484 0 0 0-2.028-.3 6.166 6.166 0 0 0-2.055.366 7.655 7.655 0 0 0-1.85.949 8.315 8.315 0 0 0-1.46 1.319 6.508 6.508 0 0 0-2.13 1.844 9.785 9.785 0 0 0-.877 1.373l-.1.186a1.9 1.9 0 0 0-.306 1.784 3.148 3.148 0 0 0 1.159 1.156c.258.177.49.321.709.451.129.072.258.144.387.21.045.024.1.048.159.072a1.083 1.083 0 0 1 .186.09 6.8 6.8 0 0 0 .7.631 3.279 3.279 0 0 0 .928.511 2.1 2.1 0 0 0 .7.126 1.775 1.775 0 0 0 .493-.069 1.811 1.811 0 0 0 .916-.571 3.453 3.453 0 0 0 .309-2.574 14.233 14.233 0 0 0-.321-1.415c-.114-.427-.228-.868-.3-1.307a6.218 6.218 0 0 1-.081-1.024 2.667 2.667 0 0 1 .057-.418l.03-.162c.1-.625-.105-.706-.171-.73a.3.3 0 0 0-.366.144 3 3 0 0 0-.267 1.6 8.765 8.765 0 0 0 .2 1.655c.03.153.063.306.1.46.1.475.2.967.258 1.451.105.958.132 1.766-.613 1.955a1.037 1.037 0 0 1-.619-.06 2.286 2.286 0 0 1-.649-.369c-.345-.261-.655-.571-1.021-.8-.394-.246-.808-.448-1.184-.724a3.726 3.726 0 0 1-.592-.5c-.219-.246-.21-.324-.168-.424a10.471 10.471 0 0 1 .481-.994 8.982 8.982 0 0 1 .685-1.078 6.1 6.1 0 0 1 1-1.054 4.029 4.029 0 0 1 .433-.3 3.157 3.157 0 0 0 .727-.568c.114-.129.24-.258.372-.384a7.409 7.409 0 0 1 .817-.685 6.674 6.674 0 0 1 1.592-.88 5.322 5.322 0 0 1 1.763-.366 6.669 6.669 0 0 1 1.847.2 2.5 2.5 0 0 1 1.154.394 2.25 2.25 0 0 1 .8.892l.108.21.559-.261z" data-name="Path 9" transform="translate(-198.499 -86.173)"/>
        </g>
        <g data-name="Group 12">
            <path d="M6.446.611a1.159 1.159 0 0 0-.691-.484 2.348 2.348 0 0 0-.754-.06 3.594 3.594 0 0 0-.655.111 2 2 0 0 0-.414-.042c-.153 0-.306.009-.457.024-.288.024-.58.066-.9.123a2.855 2.855 0 0 1-1.316.015l-.67-.1.634.234a2.713 2.713 0 0 0 1.424.189 7.108 7.108 0 0 1 1.592.021 1.574 1.574 0 0 0 .463-.018 2.094 2.094 0 0 1 .9.018.656.656 0 0 1 .475.742v.027a4.572 4.572 0 0 1-.015 1.012 2.016 2.016 0 0 1-.312.883c-.487.4-.919.73-1.325 1.018-.234.174-.472.333-.7.475l-.036.024c-.108.063-.219.132-.33.189l-.075.033c-.3.126-.342.15-.342.21v.1l.09-.03.156-.051a9.986 9.986 0 0 0 1.964-.979 3.455 3.455 0 0 0 1.114-.946 2.912 2.912 0 0 0 .385-1.661A1.962 1.962 0 0 0 6.446.611z" data-name="Path 10" transform="translate(-198.499 -86.173) translate(258.622 89.463)"/>
            <path d="M2.872 5.432v-.18c0-.108.087-.144.382-.267l.033-.015.039-.015c.108-.057.216-.12.318-.186l.045-.024c.228-.141.463-.3.7-.472.4-.288.832-.619 1.316-1.012a1.956 1.956 0 0 0 .294-.85 4.446 4.446 0 0 0 .015-1v-.027c.012-.381-.126-.6-.43-.688a1.993 1.993 0 0 0-.868-.018 1.672 1.672 0 0 1-.481.021A6.806 6.806 0 0 0 2.658.678 2.78 2.78 0 0 1 1.207.486L.007.038l1.268.2A2.864 2.864 0 0 0 2.564.226 8.958 8.958 0 0 1 3.477.1c.15-.015.306-.024.463-.024a2.244 2.244 0 0 1 .415.039 3.8 3.8 0 0 1 .649-.108 2.3 2.3 0 0 1 .775.063 1.214 1.214 0 0 1 .73.508 2 2 0 0 1 .207 1.09 3.068 3.068 0 0 1-.4 1.712 3.54 3.54 0 0 1-1.132.961 10.21 10.21 0 0 1-1.976.988l-.159.051zM5.149.521a1.765 1.765 0 0 1 .466.057.71.71 0 0 1 .517.805v.018a4.717 4.717 0 0 1-.015 1.027 2.063 2.063 0 0 1-.321.91l-.012.012c-.487.4-.922.73-1.328 1.021-.234.171-.475.333-.706.478l-.036.021c-.114.069-.222.135-.336.192l-.045.021-.033.015a1.351 1.351 0 0 0-.306.15v.015h.012l.153-.051a10.069 10.069 0 0 0 1.955-.976 3.447 3.447 0 0 0 1.093-.925 2.933 2.933 0 0 0 .375-1.628A1.915 1.915 0 0 0 6.393.641a1.091 1.091 0 0 0-.655-.454A2.153 2.153 0 0 0 5.002.13a3.43 3.43 0 0 0-.64.105l-.015.006h-.012a2.174 2.174 0 0 0-.406-.039c-.15 0-.3.009-.451.021-.291.027-.583.066-.9.123a2.945 2.945 0 0 1-1.337.018L1.169.352l.066.024a2.655 2.655 0 0 0 1.394.186 6.922 6.922 0 0 1 1.61.021 1.461 1.461 0 0 0 .445-.021 3.275 3.275 0 0 1 .464-.037z" data-name="Path 11" transform="translate(-198.499 -86.173) translate(258.622 89.463)"/>
        </g>
        <g data-name="Group 13">
            <path d="M5.713.564A1.6 1.6 0 0 0 5.091.27C5.046.258 4.998.249 4.953.24A5.642 5.642 0 0 0 3.1.303l.012.141a10.056 10.056 0 0 1 1.9.111.855.855 0 0 1 .312.105.8.8 0 0 1 .2.219.693.693 0 0 1 .129.258c.072.336-.231.658-.463.859a1.9 1.9 0 0 1-1.024.454 13.948 13.948 0 0 0-1.526.294 3.764 3.764 0 0 0-1.406.592 2.106 2.106 0 0 0-.661 1.541 5.449 5.449 0 0 0 .051.952c.021.2.042.387.048.58a6.83 6.83 0 0 1-.391 2.983h.186a5.765 5.765 0 0 0 .631-2.995c0-.219-.006-.439-.015-.652-.012-.294-.021-.571-.006-.838a1.623 1.623 0 0 1 .5-1.156 3.353 3.353 0 0 1 1.12-.469 11.407 11.407 0 0 0 2.478-.7 1.671 1.671 0 0 0 .919-1.28.963.963 0 0 0-.381-.738z" data-name="Path 12" transform="translate(-198.499 -86.173) translate(258.373 94.407)"/>
            <path d="M.568 9.575h-.571l.111-.255a6.637 6.637 0 0 0 .375-2.9c-.006-.186-.027-.363-.048-.553a6.283 6.283 0 0 1-.054-1 2.287 2.287 0 0 1 .73-1.673 3.825 3.825 0 0 1 1.478-.628 13.2 13.2 0 0 1 1.544-.3 1.724 1.724 0 0 0 .931-.415c.306-.267.442-.5.4-.679a.586.586 0 0 0-.1-.192.611.611 0 0 0-.153-.168.663.663 0 0 0-.243-.078A9.589 9.589 0 0 0 3.106.626h-.171L2.899.142l.168-.024A5.669 5.669 0 0 1 4.98.055c.051.009.1.018.147.03a1.769 1.769 0 0 1 .7.33 1.157 1.157 0 0 1 .448.886A1.857 1.857 0 0 1 5.26 2.74a5.239 5.239 0 0 1-1.64.514c-.291.057-.595.117-.874.2l-.144.042a2.758 2.758 0 0 0-.916.393 1.453 1.453 0 0 0-.43 1.024c-.015.261 0 .544.006.817.009.216.018.442.015.664a5.915 5.915 0 0 1-.655 3.088zm5.1-8.8a.881.881 0 0 1 .162.327c.069.327-.1.667-.523 1.033a2.1 2.1 0 0 1-1.12.5 14.294 14.294 0 0 0-1.5.288 3.633 3.633 0 0 0-1.334.556 1.927 1.927 0 0 0-.6 1.409 5.417 5.417 0 0 0 .051.922c.024.213.042.4.051.595a10.655 10.655 0 0 1 0 1.117 10.3 10.3 0 0 0 .057-1.123c0-.216-.009-.436-.015-.646-.012-.282-.024-.574-.009-.856a1.8 1.8 0 0 1 .571-1.289 2.949 2.949 0 0 1 1.039-.46l.144-.039a8.7 8.7 0 0 1 .91-.21 5.1 5.1 0 0 0 1.529-.472 1.5 1.5 0 0 0 .826-1.123.758.758 0 0 0-.239-.53z" data-name="Path 13" transform="translate(-198.499 -86.173) translate(258.373 94.407)"/>
        </g>
        <g data-name="Group 14">
            <path d="M264.795 91.471a.323.323 0 0 1-.264.078 1.277 1.277 0 0 1-.309-.066 3.071 3.071 0 0 1-.384-.162l-.165-.078a.877.877 0 0 0-.414-.054h-.111c-.057 0-.123-.006-.183-.012l-.114-.009c-.237-.042-.288-.114-.306-.165a1.6 1.6 0 0 1 .276-.97c.03-.063.06-.12.087-.174l.12-.255-.225.168a2.215 2.215 0 0 0-.517.529 1.2 1.2 0 0 0-.249.8.662.662 0 0 0 .288.454 1.016 1.016 0 0 0 .357.147l.069.018a1.613 1.613 0 0 0 .718-.009 2.442 2.442 0 0 0 .679.162h.108a1.09 1.09 0 0 0 .309-.039.5.5 0 0 0 .345-.294l.08-.25z" data-name="Path 14" transform="translate(-198.499 -86.173)"/>
        </g>
        <g data-name="Group 15">
            <path d="M5.485.316a11.025 11.025 0 0 1-.769 1.108 5.833 5.833 0 0 1-.874.979c-.159.144-.321.285-.487.43a8.969 8.969 0 0 0-1.481 1.5A6.67 6.67 0 0 0 .543 6.787a11.568 11.568 0 0 0-.294 2.751H.39l.066-.351a18.771 18.771 0 0 1 .538-2.271 7.352 7.352 0 0 1 1.331-2.244 8.516 8.516 0 0 1 1.144-1.241c.231-.219.472-.448.7-.694A7.119 7.119 0 0 0 5.611.379z" data-name="Path 15" transform="translate(-198.499 -86.173) translate(245.117 96.761)"/>
            <path d="M.592 9.789H0v-.246a11.755 11.755 0 0 1 .3-2.811 6.948 6.948 0 0 1 1.376-2.541A9.275 9.275 0 0 1 3.19 2.656c.174-.15.33-.285.481-.424a5.52 5.52 0 0 0 .844-.943 11.093 11.093 0 0 0 .76-1.093l.117-.192.526.264-.081.207a7.407 7.407 0 0 1-1.49 2.442c-.231.246-.475.478-.709.7a8.331 8.331 0 0 0-1.114 1.2 7.166 7.166 0 0 0-1.3 2.178 18.3 18.3 0 0 0-.529 2.232zm3.181-6.987l-.243.21a8.843 8.843 0 0 0-1.454 1.469 7.172 7.172 0 0 0-1.2 2.055 8.389 8.389 0 0 1 1.259-2.01 8.9 8.9 0 0 1 1.168-1.268c.154-.149.313-.299.47-.456z" data-name="Path 16" transform="translate(-198.499 -86.173) translate(245.117 96.761)"/>
        </g>
        <g data-name="Group 16">
            <path d="M264.224 92.848a.66.66 0 0 0-.619-.111 2.078 2.078 0 0 0-.628.255 6.177 6.177 0 0 0-1.006.829 3.773 3.773 0 0 1-.907.748 4.367 4.367 0 0 1-1.075.457l-1.211.318 1.22.219a7.443 7.443 0 0 0 1.343.12c.2 0 .4-.006.6-.021a4.226 4.226 0 0 0 1.709-.487l.039-.042-.018-.147-.081.027a5.427 5.427 0 0 1-1.664.2c-.249 0-.511-.021-.8-.051.078-.042.15-.081.216-.123a3.819 3.819 0 0 0 .991-.886 5.753 5.753 0 0 1 .847-.862 2.246 2.246 0 0 1 .5-.306.5.5 0 0 1 .445-.021l.072.03.06-.114z" data-name="Path 17" transform="translate(-198.499 -86.173)"/>
        </g>
        <g data-name="Group 30">
            <g data-name="Group 17">
                <path d="M2.446 1.439a1.363 1.363 0 0 1-1.421 1.406H.217a.181.181 0 0 1-.18-.183V.222a.184.184 0 0 1 .18-.186h.808a1.36 1.36 0 0 1 1.421 1.403zm-.36 0a1.024 1.024 0 0 0-1.1-1.06h-.58v2.124h.58a1.025 1.025 0 0 0 1.099-1.064z" data-name="Path 18" transform="translate(-198.499 -86.173) translate(232.378 110.714) translate(0 .039)"/>
                <path d="M1.022 2.881H.214a.218.218 0 0 1-.216-.219V.222A.219.219 0 0 1 .214 0h.808a1.44 1.44 0 1 1 0 2.881zM.214.075A.147.147 0 0 0 .07.222v2.439a.142.142 0 0 0 .144.144h.808a1.365 1.365 0 1 0 0-2.73zM.98 2.538H.364V.344H.98a1.1 1.1 0 1 1 0 2.2zm-.544-.072H.98a1.026 1.026 0 1 0 0-2.052H.436z" data-name="Path 19" transform="translate(-198.499 -86.173) translate(232.378 110.714) translate(0 .039)"/>
            </g>
            <g data-name="Group 18">
                <path d="M2 2.673a.17.17 0 0 1-.174.171H.213a.181.181 0 0 1-.18-.183V.222a.184.184 0 0 1 .18-.186h1.613A.174.174 0 0 1 2 .21a.169.169 0 0 1-.174.168H.4v.89h1.283a.169.169 0 0 1 .171.171.167.167 0 0 1-.171.171H.4v.892h1.427A.172.172 0 0 1 2 2.673z" data-name="Path 20" transform="translate(-198.499 -86.173) translate(232.378 110.714) translate(3.743 .039)"/>
                <path d="M1.829 2.881H.216A.218.218 0 0 1 0 2.662V.222A.219.219 0 0 1 .216 0h1.613a.209.209 0 0 1 .21.21.206.206 0 0 1-.21.2H.438v.817h1.247a.207.207 0 1 1 0 .415H.438v.82h1.391a.207.207 0 1 1 0 .415zM.216.075a.147.147 0 0 0-.144.147v2.439a.142.142 0 0 0 .144.144h1.613a.13.13 0 0 0 .135-.132.135.135 0 0 0-.135-.135H.363v-.967h1.322a.129.129 0 0 0 .135-.132.135.135 0 0 0-.135-.135H.363v-.96h1.466a.13.13 0 0 0 .135-.132.133.133 0 0 0-.135-.135z" data-name="Path 21" transform="translate(-198.499 -86.173) translate(232.378 110.714) translate(3.743 .039)"/>
            </g>
            <g data-name="Group 19">
                <path d="M2.136 2.139c0 .454-.405.784-1.03.784a2.438 2.438 0 0 1-.958-.192.187.187 0 0 1-.111-.165.162.162 0 0 1 .165-.168.176.176 0 0 1 .075.015 1.934 1.934 0 0 0 .793.165c.4 0 .7-.114.7-.463C1.77 1.52.061 1.851.061.859c0-.445.363-.823 1.042-.823a2.277 2.277 0 0 1 .8.132.159.159 0 0 1 .114.162.166.166 0 0 1-.162.168.184.184 0 0 1-.063-.018 2.008 2.008 0 0 0-.649-.108c-.406 0-.715.159-.715.46.001.697 1.708.249 1.708 1.307z" data-name="Path 22" transform="translate(-198.499 -86.173) translate(232.378 110.714) translate(6.849)"/>
                <path d="M1.105 2.957a2.445 2.445 0 0 1-.97-.2.22.22 0 0 1-.135-.2.2.2 0 0 1 .2-.207.2.2 0 0 1 .09.021 1.9 1.9 0 0 0 .778.162c.448 0 .667-.141.667-.427 0-.231-.309-.309-.667-.4C.605 1.589.026 1.439.026.853c0-.427.333-.859 1.078-.859a2.4 2.4 0 0 1 .814.132.2.2 0 0 1 .135.2.2.2 0 0 1-.2.2.213.213 0 0 1-.078-.018 1.948 1.948 0 0 0-.634-.105C.814.403.462.511.462.824c0 .282.321.357.691.448.478.114 1.015.243 1.015.859.004.491-.435.826-1.063.826zm-.9-.526a.129.129 0 0 0-.129.132.143.143 0 0 0 .09.129 2.324 2.324 0 0 0 .943.192c.586 0 .991-.309.991-.748 0-.559-.487-.676-.958-.787-.382-.093-.745-.18-.745-.52 0-.306.288-.5.751-.5a1.958 1.958 0 0 1 .661.111l.042.015a.132.132 0 0 0 .135-.132.121.121 0 0 0-.09-.126 2.24 2.24 0 0 0-.787-.132c-.694 0-1 .4-1 .787 0 .529.523.664.988.781.37.1.721.186.721.475 0 .33-.249.5-.742.5a1.987 1.987 0 0 1-.808-.168.143.143 0 0 0-.067-.007z" data-name="Path 23" transform="translate(-198.499 -86.173) translate(232.378 110.714) translate(6.849)"/>
            </g>
            <g data-name="Group 20">
                <path d="M2.445 1.439a1.363 1.363 0 0 1-1.421 1.406H.216a.18.18 0 0 1-.18-.183V.222a.182.182 0 0 1 .18-.186h.808a1.36 1.36 0 0 1 1.421 1.403zm-.363 0a1.022 1.022 0 0 0-1.1-1.06H.405v2.124h.577a1.023 1.023 0 0 0 1.1-1.064z" data-name="Path 24" transform="translate(-198.499 -86.173) translate(232.378 110.714) translate(10.237 .039)"/>
                <path d="M1.024 2.881h-.81a.218.218 0 0 1-.216-.219V.222A.219.219 0 0 1 .214 0h.808a1.44 1.44 0 1 1 0 2.881zM.216.075a.147.147 0 0 0-.144.147v2.439a.142.142 0 0 0 .144.144h.808a1.365 1.365 0 1 0 0-2.73zm.763 2.463H.363V.344h.616a1.1 1.1 0 1 1 0 2.2zm-.541-.072h.541a1.027 1.027 0 1 0 0-2.052H.438z" data-name="Path 25" transform="translate(-198.499 -86.173) translate(232.378 110.714) translate(10.237 .039)"/>
            </g>
            <g data-name="Group 21">
                <path d="M2.003 2.673a.167.167 0 0 1-.171.171H.219a.18.18 0 0 1-.18-.183V.222a.182.182 0 0 1 .18-.186h1.613a.172.172 0 0 1 .171.174.167.167 0 0 1-.171.168H.402v.89h1.283a.17.17 0 0 1 .174.171.168.168 0 0 1-.174.171H.402v.892h1.43a.169.169 0 0 1 .171.171z" data-name="Path 26" transform="translate(-198.499 -86.173) translate(232.378 110.714) translate(13.976 .039)"/>
                <path d="M1.832 2.881H.219A.22.22 0 0 1 0 2.662V.222A.221.221 0 0 1 .219 0h1.613a.206.206 0 0 1 .207.21.2.2 0 0 1-.207.2H.441v.817h1.244a.208.208 0 0 1 .21.207.2.2 0 0 1-.21.207H.441v.82h1.391a.207.207 0 1 1 0 .415zM.219.075a.145.145 0 0 0-.144.147v2.439a.142.142 0 0 0 .144.144h1.613a.132.132 0 0 0 .135-.132.135.135 0 0 0-.135-.135H.369v-.967h1.319a.131.131 0 0 0 .138-.132.135.135 0 0 0-.138-.135H.369v-.96h1.466a.134.134 0 1 0 0-.267z" data-name="Path 27" transform="translate(-198.499 -86.173) translate(232.378 110.714) translate(13.976 .039)"/>
            </g>
            <g data-name="Group 22">
                <path d="M2.003 2.673a.167.167 0 0 1-.171.171H.219a.18.18 0 0 1-.18-.183V.222a.182.182 0 0 1 .18-.186h1.613a.172.172 0 0 1 .171.174.167.167 0 0 1-.171.168H.402v.89h1.283a.17.17 0 0 1 .174.171.168.168 0 0 1-.174.171H.402v.892h1.43a.169.169 0 0 1 .171.171z" data-name="Path 28" transform="translate(-198.499 -86.173) translate(232.378 110.714) translate(19.038 .039)"/>
                <path d="M1.832 2.881H.219A.221.221 0 0 1 0 2.662V.222A.221.221 0 0 1 .219 0h1.613a.209.209 0 0 1 .21.21.206.206 0 0 1-.21.2H.441v.817h1.243a.207.207 0 1 1 0 .415H.44v.82h1.391a.207.207 0 1 1 0 .415zM.219.075a.145.145 0 0 0-.144.147v2.439a.142.142 0 0 0 .144.144h1.613a.132.132 0 0 0 .135-.132.135.135 0 0 0-.135-.135H.366v-.967h1.318a.131.131 0 0 0 .138-.132.135.135 0 0 0-.138-.135H.365v-.96h1.466a.134.134 0 1 0 0-.267z" data-name="Path 29" transform="translate(-198.499 -86.173) translate(232.378 110.714) translate(19.038 .039)"/>
            </g>
            <g data-name="Group 23">
                <path d="M1.901 2.682a.184.184 0 0 1-.183.183H.291a.255.255 0 0 1-.255-.255V.222a.183.183 0 0 1 .18-.183.187.187 0 0 1 .186.183v2.277h1.316a.186.186 0 0 1 .183.183z" data-name="Path 30" transform="translate(-198.499 -86.173) translate(232.378 110.714) translate(22.33 .018)"/>
                <path d="M1.718 2.902H.288a.29.29 0 0 1-.291-.291V.222A.221.221 0 0 1 .213 0a.224.224 0 0 1 .222.222v2.241h1.28a.22.22 0 1 1 0 .439zM.218.075a.144.144 0 0 0-.141.147V2.61a.215.215 0 0 0 .216.216H1.72a.145.145 0 0 0 .147-.144.149.149 0 0 0-.147-.147H.368V.222A.15.15 0 0 0 .216.075z" data-name="Path 31" transform="translate(-198.499 -86.173) translate(232.378 110.714) translate(22.33 .018)"/>
            </g>
            <g data-name="Group 24">
                <path d="M2.86 1.481A1.412 1.412 0 1 1 1.448.039 1.368 1.368 0 0 1 2.86 1.481zm-.367 0a1.047 1.047 0 1 0-1.045 1.1 1.015 1.015 0 0 0 1.045-1.1z" data-name="Path 32" transform="translate(-198.499 -86.173) translate(232.378 110.714) translate(26.974)"/>
                <path d="M1.448 2.957a1.48 1.48 0 1 1 1.448-1.481 1.4 1.4 0 0 1-1.448 1.481zm0-2.887a1.408 1.408 0 1 0 1.373 1.406A1.322 1.322 0 0 0 1.448.072zm0 2.544a1.14 1.14 0 1 1 1.081-1.138 1.05 1.05 0 0 1-1.081 1.14zm0-2.2a1.066 1.066 0 1 0 1.009 1.063A.982.982 0 0 0 1.448.415z" data-name="Path 33" transform="translate(-198.499 -86.173) translate(232.378 110.714) translate(26.974)"/>
            </g>
            <g data-name="Group 25">
                <path d="M2.226 2.682a.179.179 0 0 1-.18.18.172.172 0 0 1-.186-.18v-.12c0-.264-.015-.814-.622-.814H.403v.934a.181.181 0 0 1-.183.18.177.177 0 0 1-.18-.18V.222A.182.182 0 0 1 .22.036h.937C1.92.036 2.25.39 2.25.853a.75.75 0 0 1-.529.727c.448.117.5.694.5.919zm-.342-1.8c0-.3-.177-.5-.772-.5H.403v1.021h.73c.452 0 .752-.181.752-.523z" data-name="Path 34" transform="translate(-198.499 -86.173) translate(232.378 110.714) translate(31.128 .039)"/>
                <path d="M2.046 2.902a.207.207 0 0 1-.222-.219v-.12c0-.36-.066-.775-.586-.775h-.8v.9a.221.221 0 0 1-.442 0V.228A.221.221 0 0 1 .215.006h.937c1.021 0 1.129.6 1.129.853a.787.787 0 0 1-.46.727c.4.18.436.739.436.919v.183a.218.218 0 0 1-.211.214zM.367 1.713h.871c.658 0 .658.619.658.85v.12a.136.136 0 0 0 .15.144.142.142 0 0 0 .144-.144V2.5c0-.129-.024-.763-.478-.883l-.117-.03.117-.039a.718.718 0 0 0 .5-.694c0-.5-.387-.778-1.057-.778H.218a.145.145 0 0 0-.144.147v2.46a.142.142 0 0 0 .144.144.145.145 0 0 0 .147-.144zm.766-.27H.367V.344h.745c.553 0 .808.171.808.535s-.295.565-.788.565zm-.691-.075h.691c.448 0 .715-.18.715-.487 0-.213-.084-.46-.736-.46h-.67z" data-name="Path 35" transform="translate(-198.499 -86.173) translate(232.378 110.714) translate(31.128 .039)"/>
            </g>
            <g data-name="Group 26">
                <path d="M.402.222v2.481a.181.181 0 0 1-.183.18.18.18 0 0 1-.183-.18V.222A.184.184 0 0 1 .219.039a.186.186 0 0 1 .183.183z" data-name="Path 36" transform="translate(-198.499 -86.173) translate(232.378 110.714) translate(34.717 .018)"/>
                <path d="M.219 2.923A.221.221 0 0 1 0 2.704V.222A.221.221 0 0 1 .219 0a.226.226 0 0 1 .222.222v2.481a.223.223 0 0 1-.222.22zm0-2.848a.145.145 0 0 0-.144.147v2.481a.142.142 0 0 0 .144.144.145.145 0 0 0 .147-.144V.222A.149.149 0 0 0 .219.075z" data-name="Path 37" transform="translate(-198.499 -86.173) translate(232.378 110.714) translate(34.717 .018)"/>
            </g>
            <g data-name="Group 27">
                <path d="M2.521 1.535v.913a.274.274 0 0 1-.153.249 2.049 2.049 0 0 1-.922.225A1.36 1.36 0 0 1 .034 1.483a1.375 1.375 0 0 1 1.4-1.448 1.751 1.751 0 0 1 1 .288.17.17 0 0 1 .081.144.163.163 0 0 1-.168.165.183.183 0 0 1-.084-.018 1.474 1.474 0 0 0-.79-.225A1.016 1.016 0 0 0 .401 1.482a1.034 1.034 0 0 0 1.093 1.093 1.436 1.436 0 0 0 .7-.177v-.727H1.53a.165.165 0 0 1 0-.33h.793a.192.192 0 0 1 .198.194z" data-name="Path 38" transform="translate(-198.499 -86.173) translate(232.378 110.714) translate(36.421)"/>
                <path d="M1.448 2.957a1.48 1.48 0 0 1-.012-2.959 1.772 1.772 0 0 1 1.021.294.2.2 0 0 1-.108.378.243.243 0 0 1-.1-.024 1.441 1.441 0 0 0-.772-.222.982.982 0 0 0-1.036 1.057 1 1 0 0 0 1.057 1.057 1.449 1.449 0 0 0 .667-.162v-.67h-.628a.2.2 0 0 1 0-.4h.793a.227.227 0 0 1 .231.228v.913a.307.307 0 0 1-.174.282 2.073 2.073 0 0 1-.939.228zM1.436.07a1.408 1.408 0 0 0 .012 2.815 1.971 1.971 0 0 0 .9-.222.23.23 0 0 0 .132-.216v-.913a.155.155 0 0 0-.156-.156h-.793a.128.128 0 0 0-.126.129.123.123 0 0 0 .126.126h.7v.787l-.021.012a1.518 1.518 0 0 1-.721.18 1.069 1.069 0 0 1-1.13-1.129A1.05 1.05 0 0 1 1.467.351a1.5 1.5 0 0 1 .808.231.153.153 0 0 0 .066.015.129.129 0 0 0 .132-.129.134.134 0 0 0-.063-.111 1.7 1.7 0 0 0-.974-.285z" data-name="Path 39" transform="translate(-198.499 -86.173) translate(232.378 110.714) translate(36.421)"/>
            </g>
            <g data-name="Group 28">
                <path d="M2.003 2.673a.17.17 0 0 1-.174.171H.216a.181.181 0 0 1-.18-.183V.222a.184.184 0 0 1 .18-.186h1.611a.174.174 0 0 1 .174.174.169.169 0 0 1-.174.168H.4v.89h1.283a.169.169 0 0 1 .171.171.167.167 0 0 1-.171.171H.4v.892h1.427a.172.172 0 0 1 .176.171z" data-name="Path 40" transform="translate(-198.499 -86.173) translate(232.378 110.714) translate(40.307 .039)"/>
                <path d="M1.829 2.881H.216A.218.218 0 0 1 0 2.662V.222A.219.219 0 0 1 .216 0h1.613a.209.209 0 0 1 .21.21.206.206 0 0 1-.21.2H.438v.817h1.247a.207.207 0 1 1 0 .415H.438v.82h1.391a.207.207 0 1 1 0 .415zM.216.075a.147.147 0 0 0-.144.147v2.439a.142.142 0 0 0 .144.144h1.613a.13.13 0 0 0 .135-.132.135.135 0 0 0-.135-.135H.366v-.967h1.319a.129.129 0 0 0 .135-.132.135.135 0 0 0-.135-.135H.366v-.96h1.463a.13.13 0 0 0 .135-.132.133.133 0 0 0-.135-.135z" data-name="Path 41" transform="translate(-198.499 -86.173) translate(232.378 110.714) translate(40.307 .039)"/>
            </g>
            <g data-name="Group 29">
                <path d="M2.484.222v2.4a.262.262 0 0 1-.264.261h-.048a.259.259 0 0 1-.213-.108L.403.528v2.175a.184.184 0 0 1-.186.18.177.177 0 0 1-.18-.18v-2.4A.264.264 0 0 1 .298.039h.051a.284.284 0 0 1 .222.12l1.547 2.235V.222a.183.183 0 0 1 .18-.183.187.187 0 0 1 .186.183z" data-name="Path 42" transform="translate(-198.499 -86.173) translate(232.378 110.714) translate(43.599 .018)"/>
                <path d="M2.22 2.923h-.048a.3.3 0 0 1-.243-.123L.439.646v2.058a.221.221 0 0 1-.222.219.218.218 0 0 1-.216-.219v-2.4a.3.3 0 0 1 .3-.3h.051a.316.316 0 0 1 .249.135l1.484 2.142V.222A.219.219 0 0 1 2.301 0a.224.224 0 0 1 .222.222v2.4a.3.3 0 0 1-.303.301zM.364.409l1.625 2.346a.222.222 0 0 0 .183.093h.048a.226.226 0 0 0 .228-.225v-2.4a.15.15 0 0 0-.15-.147.147.147 0 0 0-.144.147v2.288L.541.18A.243.243 0 0 0 .349.075H.298a.227.227 0 0 0-.225.228v2.4a.142.142 0 0 0 .144.144.145.145 0 0 0 .147-.144z" data-name="Path 43" transform="translate(-198.499 -86.173) translate(232.378 110.714) translate(43.599 .018)"/>
            </g>
        </g>
    </g>
</svg>
